Coordinates
version=1
nRows=8
nColumns=40
inDegrees=yes

Units are S.I. units (second, meters, Newtons, ...)
Angles are in degrees.

endheader
time	pelvis_tilt	pelvis_list	pelvis_rotation	pelvis_tx	pelvis_ty	pelvis_tz	hip_flexion_r	hip_adduction_r	hip_rotation_r	knee_angle_r	knee_angle_r_beta	ankle_angle_r	subtalar_angle_r	mtp_angle_r	hip_flexion_l	hip_adduction_l	hip_rotation_l	knee_angle_l	knee_angle_l_beta	ankle_angle_l	subtalar_angle_l	mtp_angle_l	lumbar_extension	lumbar_bending	lumbar_rotation	arm_flex_r	arm_add_r	arm_rot_r	elbow_flex_r	pro_sup_r	wrist_flex_r	wrist_dev_r	arm_flex_l	arm_add_l	arm_rot_l	elbow_flex_l	pro_sup_l	wrist_flex_l	wrist_dev_l
     51.94750000	     -1.87406030	     -3.35534113	     -5.99520695	      1.10886539	      0.92853731	      0.49199056	     17.46414909	      0.54220566	     -5.90219398	     23.27042072	     23.27042072	      9.53655035	     -0.39279530	     -2.85808041	     -2.27687192	     -9.09527232	    -15.37981756	     19.90100975	     19.90100975	     18.12832212	     -5.92050510	     -1.15252719	     -7.83418364	      4.46371497	     -3.19718617	     -3.33162731	    -17.20318852	     -7.57385769	     55.92627940	     45.13348866	      0.00000000	      0.00000000	     11.91319293	    -13.03739982	     -7.10165513	     59.81878224	     47.43022900	      0.00000000	      0.00000000
     51.96771429	     -1.79336521	     -3.52407249	     -5.23019307	      1.11139165	      0.92929513	      0.49647760	     16.59464866	      0.87941732	     -6.59662641	     22.88330370	     22.88330370	      9.92754883	     -0.42586991	     -2.84350952	     -1.42484499	    -10.06377776	    -14.47034262	     22.20364787	     22.20364787	     17.69112868	     -6.34494589	     -1.55076339	     -7.86106167	      4.45182275	     -3.49762568	     -1.83503525	    -17.03743381	     -7.56124277	     56.84269859	     45.11247925	      0.00000000	      0.00000000	      9.99491897	    -12.59380367	     -6.36025493	     57.01540203	     47.31603308	      0.00000000	      0.00000000
     51.98792857	     -1.76105002	     -3.58967509	     -4.45362250	      1.11350342	      0.92995394	      0.50071666	     15.85257882	      1.11864079	     -7.23042567	     22.54557410	     22.54557410	     10.28223948	     -0.51900858	     -2.86440630	     -0.25249434	    -10.95016568	    -13.48817304	     24.80893307	     24.80893307	     16.79865660	     -6.89786349	     -2.79184107	     -7.71102620	      4.35008909	     -3.05809201	     -0.54888433	    -17.35496112	     -6.58072111	     56.91712773	     45.09847774	      0.00000000	      0.00000000	      9.89326064	    -11.80604484	     -4.58077812	     50.02363762	     47.06938754	      0.00000000	      0.00000000
     52.00814286	     -1.71640623	     -3.70414910	     -3.61442469	      1.11515840	      0.93045691	      0.50470304	     15.08798384	      1.41384254	     -7.90834879	     22.12110172	     22.12110172	     10.58921887	     -0.61318791	     -2.98384270	      1.28638067	    -11.87095423	    -12.15628104	     27.89893753	     27.89893753	     15.45738653	     -8.01471618	     -4.66009322	     -7.71110533	      4.28674971	     -2.81248481	      0.96833636	    -17.44554274	     -6.32092422	     57.05429090	     45.11276535	      0.00000000	      0.00000000	      8.85882714	    -11.21757023	     -3.28513792	     45.35193938	     46.87591942	      0.00000000	      0.00000000
     52.02835714	     -1.62443652	     -3.93048292	     -2.70384406	      1.11639843	      0.93083315	      0.50844174	     14.31427219	      1.81582189	     -8.70876728	     21.72046940	     21.72046940	     10.88622635	     -0.75624645	     -3.00939703	      3.21529229	    -12.94788853	    -10.72831374	     31.63608606	     31.63608606	     14.25126941	     -9.02229142	     -5.58730430	     -7.91187716	      4.34731838	     -2.61858732	      2.46218007	    -17.51609949	     -6.42591547	     57.48519623	     45.11336975	      0.00000000	      0.00000000	      6.89523416	    -10.66956781	     -2.80578078	     43.32473836	     46.78491657	      0.00000000	      0.00000000
     52.04857143	     -1.58959192	     -4.02984811	     -1.80767932	      1.11717679	      0.93096659	      0.51187946	     13.72268864	      2.11599716	     -9.27056689	     21.41892409	     21.41892409	     11.06529894	     -1.17795032	     -3.32475584	      5.34126436	    -13.69160387	     -8.96298801	     35.23929030	     35.23929030	     11.24236381	    -11.38343393	     -9.50499404	     -7.88306270	      4.25506319	     -2.34020291	      4.58465716	    -17.73553887	     -5.62741821	     56.09963445	     45.16579897	      0.00000000	      0.00000000	      6.27200410	    -10.09950272	     -1.23721680	     37.42565093	     46.53776659	      0.00000000	      0.00000000
     52.06878571	     -1.50430523	     -4.21397140	     -0.87324765	      1.11753136	      0.93083978	      0.51514389	     13.17841570	      2.51088705	     -9.81960162	     21.23060442	     21.23060442	     11.30039654	     -1.75299620	     -3.56275568	      7.77284087	    -14.50302732	     -7.18455234	     39.30840239	     39.30840239	      8.26689099	    -13.60316455	    -12.39546593	     -8.07373811	      4.26087786	     -2.05786406	      6.52882819	    -17.90326671	     -5.49516481	     55.68131697	     45.21117175	      0.00000000	      0.00000000	      4.65084703	     -9.75850954	     -0.23667134	     34.61420877	     46.34217159	      0.00000000	      0.00000000
     52.08900000	     -1.41702121	     -4.40441493	      0.07859879	      1.11744933	      0.93043096	      0.51820634	     12.78618311	      2.92433518	    -10.24773848	     21.24552649	     21.24552649	     11.62239195	     -2.57597421	     -3.63261316	     10.53399964	    -15.19852106	     -5.28906532	     43.78626975	     43.78626975	      5.77744980	    -15.41066036	    -12.98738582	     -8.33143915	      4.28467444	     -1.75451061	      8.41804342	    -18.06927338	     -5.59054063	     55.70731342	     45.23183422	      0.00000000	      0.00000000	      2.73152834	     -9.47590836	      0.30270886	     32.75550310	     46.22653113	      0.00000000	      0.00000000
